<?xml version="1.0" encoding="UTF-8"?>
<svg width="32" height="32" viewBox="0 0 32 32" xmlns="http://www.w3.org/2000/svg">
  <!-- Gradient background -->
  <defs>
    <linearGradient id="bgGradient" x1="0%" y1="0%" x2="100%" y2="100%">
      <stop offset="0%" style="stop-color:#667eea;stop-opacity:1" />
      <stop offset="100%" style="stop-color:#764ba2;stop-opacity:1" />
    </linearGradient>
    <linearGradient id="glowGradient" x1="0%" y1="0%" x2="100%" y2="100%">
      <stop offset="0%" style="stop-color:#ffffff;stop-opacity:0.9" />
      <stop offset="100%" style="stop-color:#e0e7ff;stop-opacity:0.7" />
    </linearGradient>
  </defs>
  
  <!-- Background circle with gradient -->
  <circle cx="16" cy="16" r="15" fill="url(#bgGradient)" stroke="#4c1d95" stroke-width="1"/>
  
  <!-- AI Brain/Circuit Pattern -->
  <g stroke="url(#glowGradient)" stroke-width="1.2" fill="none" stroke-linecap="round">
    <!-- Main circuit paths -->
    <path d="M8 10 Q12 8 16 10 Q20 8 24 10 Q20 12 24 14 Q20 16 24 18 Q20 20 24 22 Q20 24 16 22 Q12 24 8 22 Q12 20 8 18 Q12 16 8 14 Q12 12 8 10 Z"/>
    
    <!-- Central processing unit -->
    <circle cx="16" cy="16" r="4" stroke-width="2"/>
    <circle cx="16" cy="16" r="2" fill="url(#glowGradient)"/>
    
    <!-- Connection nodes -->
    <circle cx="12" cy="12" r="1.5" fill="url(#glowGradient)"/>
    <circle cx="20" cy="12" r="1.5" fill="url(#glowGradient)"/>
    <circle cx="12" cy="20" r="1.5" fill="url(#glowGradient)"/>
    <circle cx="20" cy="20" r="1.5" fill="url(#glowGradient)"/>
    
    <!-- Data flow lines -->
    <line x1="16" y1="12" x2="16" y2="20" stroke-width="1"/>
    <line x1="12" y1="16" x2="20" y2="16" stroke-width="1"/>
    
    <!-- Small connection dots -->
    <circle cx="10" cy="10" r="0.8" fill="url(#glowGradient)"/>
    <circle cx="22" cy="10" r="0.8" fill="url(#glowGradient)"/>
    <circle cx="10" cy="22" r="0.8" fill="url(#glowGradient)"/>
    <circle cx="22" cy="22" r="0.8" fill="url(#glowGradient)"/>
  </g>
  
  <!-- Glow effect -->
  <circle cx="16" cy="16" r="14" fill="none" stroke="url(#glowGradient)" stroke-width="0.5" opacity="0.3"/>
</svg> 